<?xml version="1.0" encoding="utf-8"?>
<!-- Generator: Adobe Illustrator 18.1.1, SVG Export Plug-In . SVG Version: 6.00 Build 0)  -->
<svg version="1.1" id="Layer_1" xmlns="http://www.w3.org/2000/svg" xmlns:xlink="http://www.w3.org/1999/xlink" x="0px" y="0px"
	 viewBox="0 0 800 600" enable-background="new 0 0 800 600" xml:space="preserve">
<path fill="#9E9E9E" d="M705.3,267.6h-10.6v-14.7h28V328h-17.4V267.6z"/>
<path fill="#9E9E9E" d="M694.5,252.9h28"/>
<polygon fill="#58BDEB" points="703.9,252.1 703.9,266.8 705.3,266.8 705.3,327.2 722.7,327.2 722.7,252.1 "/>
<rect x="694.5" y="252.1" fill="#9E9E9E" width="9.2" height="14.7"/>
<path fill="#9E9E9E" d="M787.2,267.6h-25.4l-2,10c1.9-0.3,4.2-0.6,6.3-0.6c8.5,0,15,3,19.1,7.4c3.4,3.4,6.9,9.2,6.9,18.2
	c0,9.7-4.2,16-7.7,19.4c-6.9,6.7-15,7.8-22.7,7.8c-7,0-15.5-0.9-25-8.3l3.9-16.1c2,2.2,4.9,4.7,7.2,6.3c3.1,2,6.9,3.3,11.4,3.3
	c3.9,0,8-0.9,10.6-3c2.3-1.9,4.4-5,4.4-9.4c0-4.5-2-7.2-3.8-8.8c-0.9-0.8-4.7-3.9-12.5-3.9c-6.3,0-11.6,1.9-15.3,3.9l7.7-40.7h36.9
	V267.6z"/>
<path fill="#9E9E9E" d="M750.1,252.9H787"/>
<path fill="none" d="M759,315.2c3.9,0,8-0.9,10.6-3c2.3-1.9,4.4-5,4.4-9.4c0-4.5-2-7.2-3.8-8.8c-0.2-0.2-0.3-0.3-0.6-0.5l-17.8,20.5
	C754,314.7,756.5,315.2,759,315.2z"/>
<path fill="none" d="M761.8,267.8l-2,10c0.2,0,0.5,0,0.6-0.2l8.6-10h-7.2V267.8z"/>
<path fill="#58BDEB" d="M780.4,281.1l-10.8,12.4c0.3,0.2,0.5,0.3,0.6,0.5c1.9,1.6,3.8,4.2,3.8,8.8c0,4.4-2,7.7-4.4,9.4
	c-2.7,2.2-6.7,3-10.6,3c-2.7,0-5-0.5-7.2-1.3l-10,11.4c7.4,4.1,13.9,4.7,19.6,4.7c7.7,0,16-1.1,22.7-7.8c3.4-3.4,7.7-9.7,7.7-19.4
	c0-8.9-3.4-14.7-6.9-18.2C783.7,283.3,782.3,282,780.4,281.1z"/>
<path fill="#0098FC" d="M759.8,277.8l2-10h7.2l12.7-14.7h-31.6l-7.7,40.7c1.7-0.9,3.8-1.9,6.1-2.5l11.7-13.6
	C760.1,277.8,759.9,277.8,759.8,277.8z"/>
<path fill="#9E9E9E" d="M769.8,293.4l10.8-12.4c-3.9-2.3-8.8-3.8-14.6-3.8c-1.7,0-3.8,0.2-5.6,0.5l-11.7,13.6
	c2.8-0.8,5.8-1.4,9.2-1.4C764.6,289.8,768.2,292.2,769.8,293.4z"/>
<polygon fill="#9E9E9E" points="787.2,267.8 787.2,253.2 781.7,253.2 769,267.8 "/>
<path fill="#9E9E9E" d="M747.7,311.9c-2.3-1.4-5.2-3.9-7.2-6.3l-3.9,16.1c1.9,1.4,3.6,2.7,5.5,3.6l10-11.4
	C750.4,313.5,749,312.7,747.7,311.9z"/>
<path fill="#9E9E9E" d="M490.4,305l13.9-27.2h18.3l-40.5,76.1h-18.3l17.7-32.2l-0.8-1.4 M480.7,320.2l-23.2-42.4h18.8l14.2,27.2"/>
<path fill="#9E9E9E" d="M457.4,277.9h18.8 M504.2,277.9h18.3L482.1,354h-18.3l17.7-32.2"/>
<path fill="#0098FC" d="M472.5,304.5L458,277.9h18.8l4.5,8.6l0.3,0.6"/>
<path fill="#58BDEB" d="M481.5,322.1l8.9-16.6l13.9-27.2h18.3l-40.4,76.1h-18.3L481.5,322.1z"/>
<path fill="#9E9E9E" d="M212.9,290.9v37.3h-16.3v-37.3H191v-13.1h5.6v-16.3h16.3v16.3h10v13.1H212.9z"/>
<polygon fill="#0098FC" points="211.5,281.8 213.7,277.5 213.7,261.5 197.4,261.5 197.4,277.8 191.7,277.8 191.7,290.9 197.4,290.9 
	197.4,307.7 202.5,298.4 "/>
<polygon fill="#58BDEB" points="213.7,310.6 204.4,328 213.7,328 "/>
<polygon fill="#58BDEB" points="213.7,290.9 223.7,290.9 223.7,277.8 213.7,277.8 213.7,277.5 211.5,281.8 202.5,298.4 197.4,307.7 
	197.4,328 204.4,328 213.7,310.6 "/>
<path fill="#9E9E9E" d="M59.3,305.8H21.8c0,2.7,0.9,6.3,3,8.6c2.5,2.7,5.8,3.1,8.3,3.1c2.3,0,4.9-0.5,6.6-1.4
	c0.2-0.2,2.2-1.4,3.4-4.2l15.3,1.6c-2.2,7-6.7,10.8-9.7,12.7c-4.9,3-10.3,3.8-16,3.8c-7.5,0-14.2-1.4-20-7.2
	c-4.4-4.4-7.5-11.1-7.5-19.4c0-7.2,2.7-14.7,7.7-19.9c6.1-6.1,13.6-7.2,19.3-7.2s13.8,0.9,19.9,7.5c5.9,6.3,7,14.2,7,20.3v1.7H59.3z
	 M44.3,296.1c-0.2-0.5-0.9-3.6-3.3-5.8c-1.9-1.7-4.4-2.8-7.7-2.8c-4.2,0-6.6,1.7-8.3,3.3c-1.3,1.4-2.3,3.1-2.8,5.5h22.1V296.1z"/>
<path fill="none" d="M27.2,290c-0.8,0.5-1.4,1.1-2,1.6c-1.3,1.4-2.3,3.1-2.8,5.5h1.3l0.5-0.9L27.2,290z"/>
<path fill="none" d="M43,293.7l-1.9,3.3h3.1C44.3,296.7,43.8,295.3,43,293.7z"/>
<path fill="#58BDEB" d="M32.9,330.7c5.6,0,11.1-0.8,16-3.8c3-1.9,7.5-5.5,9.7-12.7l-15.3-1.6c-1.4,2.8-3.3,4.1-3.4,4.2
	c-1.7,0.9-4.2,1.4-6.6,1.4c-0.9,0-2,0-3.1-0.3l-6.1,11.6C26.8,330.5,29.7,330.7,32.9,330.7z"/>
<path fill="#58BDEB" d="M44.3,297h-3.1l-5.2,9.7h23.3V305c0-6.3-1.1-14.1-7-20.3c-0.9-0.9-2-1.9-3-2.7L43,293.7
	C43.8,295.3,44.3,296.7,44.3,297z"/>
<path fill="#0098FC" d="M23.6,297h-1.3c0.5-2.2,1.6-4.1,2.8-5.5c0.6-0.6,1.3-1.1,2-1.6l6.6-12.8c-0.5,0-0.9,0-1.4,0
	c-5.6,0-13.1,1.1-19.3,7.2c-5,5.2-7.7,12.7-7.7,19.9c0,6.9,2.2,12.5,5.3,16.7l4.5-8.3L23.6,297z"/>
<path fill="#9E9E9E" d="M33.3,288.3c3.3,0,5.8,1.1,7.7,2.8c0.8,0.8,1.4,1.7,1.9,2.5l6.3-11.7c-5-3.8-11-4.7-15.5-4.9l-6.6,12.8
	C28.6,289,30.7,288.3,33.3,288.3z"/>
<path fill="#9E9E9E" d="M21.8,306.7H36l5.2-9.7H23.6l-8.5,15.7l-4.5,8.3c0.6,0.9,1.4,1.9,2.2,2.7c3.4,3.4,7,5.3,11,6.3l6.1-11.6
	c-1.7-0.3-3.6-1.3-5.2-2.8C22.9,313,21.8,309.4,21.8,306.7z"/>
<path fill="#9E9E9E" d="M669.3,321.9c-4.4,4.2-11,7.8-20.2,7.8c-9.1,0-15.5-3.4-19.9-7.8c-7.4-7.2-10.8-18.6-10.8-31.5
	c0-13,3.4-24.4,10.8-31.6c4.5-4.4,11-7.8,19.9-7.8c9.2,0,15.8,3.4,20.2,7.8c7.4,7,10.8,18.6,10.8,31.6S676.7,314.7,669.3,321.9z
	 M642.4,268.9c-5.5,5.5-6.3,16.3-6.3,21.6c0,5.8,0.9,16.4,6.3,21.6c2,1.9,4.1,2.8,7,2.8c3,0,5-0.9,7-2.8c5.3-5.2,6.3-15.8,6.3-21.6
	c0-5.3-0.8-16.1-6.3-21.6c-2-1.9-4.1-2.8-7-2.8C646.4,266,644.3,267,642.4,268.9z"/>
<path fill="#9E9E9E" d="M649.1,251.3"/>
<path fill="#0098FC" d="M636.3,289c0-5,0.8-15.2,5.6-20.8v-17.4c-5.2,1.3-9.2,3.8-12.4,6.9c-7.4,7-10.8,18.6-10.8,31.6
	c0,12.8,3.4,24.3,10.8,31.5c3.1,3,7.2,5.6,12.4,6.9V310C637.2,304.5,636.3,294.7,636.3,289z"/>
<path fill="#58BDEB" d="M680.4,289.2c0-13-3.4-24.4-10.8-31.6c-2.7-2.5-6.1-4.9-10.3-6.3v19.9c3.1,5.8,3.6,13.6,3.6,17.8
	c0,4.7-0.6,12.4-3.6,18v19.9c4.4-1.4,7.7-3.8,10.3-6.3C677,313.5,680.4,302,680.4,289.2z"/>
<path fill="#9E9E9E" d="M642.7,267.6c2-1.9,4.1-2.8,7-2.8c3,0,5,0.9,7,2.8c1.1,1.1,2,2.3,2.7,3.6v-19.7c-2.8-0.9-6.1-1.6-9.9-1.6
	c-2.8,0-5.3,0.3-7.5,0.9v17.5C642.2,268.1,642.4,267.8,642.7,267.6z"/>
<path fill="#9E9E9E" d="M656.6,310.8c-2,1.9-4.1,2.8-7,2.8c-3,0-5-0.9-7-2.8c-0.3-0.2-0.5-0.5-0.6-0.8v17.5c2.3,0.6,4.9,0.9,7.5,0.9
	c3.8,0,6.9-0.6,9.9-1.6V307C658.5,308.5,657.7,309.7,656.6,310.8z"/>
<path fill="#9E9E9E" d="M431.5,277.8h16.3V328h-16.3v-6.1c-4.4,6.7-10.6,7.8-14.9,7.8c-7.2,0-13.3-1.9-18.8-7.7
	c-5.3-5.6-7.4-12.2-7.4-18.8c0-8.5,3.1-15.7,7.8-20.3c4.4-4.4,10.5-6.9,17.5-6.9c4.2,0,11.1,0.9,15.8,7.4v-5.6H431.5z M410.9,293.7
	c-1.7,1.7-3.8,4.7-3.8,9.1c0,4.5,1.9,7.5,3.4,9.1c2.2,2.3,5.8,3.9,9.5,3.9c3.3,0,6.3-1.4,8.5-3.4s3.9-5.2,3.9-9.4
	c0-3.6-1.4-7-3.8-9.2c-2.5-2.3-6.1-3.4-9.1-3.4C416.4,290.1,413.1,291.5,410.9,293.7z"/>
<path fill="#0098FC" d="M410.9,311.6c-1.4-1.6-3.4-4.5-3.4-9.1c0-4.5,2-7.5,3.8-9.1c1.1-1.1,2.5-2,4.2-2.7v-14.9
	c-6.7,0.2-12.5,2.7-16.9,6.9c-4.7,4.7-7.8,11.9-7.8,20.3c0,6.6,2,13.1,7.4,18.8c5.2,5.5,10.8,7.4,17.2,7.7v-14.9
	C413.7,313.9,412.1,312.8,410.9,311.6z"/>
<path fill="#58BDEB" d="M448,277.9h-16.3v19.9c0.6,1.6,0.9,3.3,0.9,5.2s-0.3,3.6-0.9,5.2v20H448V277.9z"/>
<path fill="#9E9E9E" d="M379.9,328h-16.3v-6.1c-2.5,3.6-7,7.8-16,7.8c-7.5,0-12.8-2.3-17.2-6.9c-5.2-5.2-7.8-12.4-7.8-20.2
	c0-8.3,3-15.2,7.8-19.9c4.4-4.2,10.6-6.7,17.5-6.7c5.5,0,11.6,1.9,15.7,7.4v-37.6h16.3V328z M343.3,293.4c-2.3,2.2-3.9,5.5-3.9,9.5
	c0,3.8,1.6,7,3.9,9.2c2.5,2.3,5.6,3.4,8.5,3.4c3,0,6.6-1.3,9.2-3.8c1.9-1.9,3.8-4.9,3.8-9.1c0-4.2-1.7-7.2-3.6-9.2
	c-2.7-2.7-5.6-3.8-9.1-3.8C348.7,290.1,345.9,290.9,343.3,293.4z"/>
<path fill="#58BDEB" d="M364.1,245.4v37.6v14.4c0.6,1.4,0.9,3.3,0.9,5.3c0,1.9-0.5,3.6-0.9,5v13.9v6.1h16.3v-82.3H364.1z"/>
<path fill="#0098FC" d="M343.3,312.5c-2.3-2.2-3.9-5.5-3.9-9.2c0-4.1,1.6-7.4,3.9-9.5c1.3-1.3,2.5-2,3.9-2.5v-14.7
	c-6.6,0.2-12.5,2.7-16.7,6.7c-4.9,4.7-7.8,11.4-7.8,19.9c0,7.8,2.7,15,7.8,20.2c4.2,4.4,9.5,6.7,16.7,6.9v-14.9
	C345.8,314.6,344.5,313.6,343.3,312.5z"/>
<path fill="#9E9E9E" d="M235.1,245.8h16.3v37.9c2-2.5,4.2-4.2,6.1-5.2c3.4-1.9,6.3-2.2,9.9-2.2c3.9,0,9.9,0.6,14.2,5
	c4.7,4.7,5,10.8,5,14.7V328h-16.3v-25.8c0-3.4-0.2-7.5-2.7-10c-1.4-1.4-3.9-2.2-6.3-2.2c-3.4,0-5.5,1.6-6.4,2.5
	c-3.3,3.1-3.4,8-3.4,10.5v25.2h-16.3v-82.3H235.1z"/>
<path fill="#58BDEB" d="M281.4,281.5c-4.2-4.4-9.7-5-13.6-5v4.9v11.1c2.2,2.5,2.3,6.3,2.3,9.7V328h16.3v-31.8
	C286.4,292.3,286,286.1,281.4,281.5z"/>
<polygon fill="#0098FC" points="250.8,246.9 234.6,246.9 234.6,329.1 250.8,329.1 250.8,303.9 250.8,284.8 "/>
<path fill="#9E9E9E" d="M114.3,277.8h16.3V328h-16.3v-6.1c-4.4,6.7-10.6,7.8-14.9,7.8c-7.2,0-13.3-1.9-18.8-7.7
	c-5.3-5.6-7.4-12.2-7.4-18.8c0-8.5,3.1-15.7,7.8-20.3c4.4-4.4,10.5-6.9,17.5-6.9c4.2,0,11.1,0.9,15.8,7.4v-5.6H114.3z M93.6,293.7
	c-1.7,1.7-3.8,4.7-3.8,9.1c0,4.5,1.9,7.5,3.4,9.1c2.2,2.3,5.6,3.9,9.5,3.9c3.3,0,6.3-1.4,8.5-3.4s3.9-5.2,3.9-9.4
	c0-3.6-1.4-7-3.8-9.2c-2.5-2.3-6.1-3.4-9.1-3.4C98.9,290.1,95.6,291.5,93.6,293.7z"/>
<path fill="#9E9E9E" d="M113.8,277.8h16.3V328h-16.3v-6.1c-4.4,6.7-10.6,7.8-14.9,7.8c-7.2,0-13.3-1.9-18.8-7.7
	c-5.3-5.6-7.4-12.2-7.4-18.8c0-8.5,3.1-15.7,7.8-20.3c4.4-4.4,10.5-6.9,17.5-6.9c4.2,0,11.1,0.9,15.8,7.4v-5.6H113.8z M93.1,293.7
	c-1.7,1.7-3.8,4.7-3.8,9.1c0,4.5,1.9,7.5,3.4,9.1c2.3,2.3,5.8,3.9,9.5,3.9c3.3,0,6.3-1.4,8.5-3.4s3.9-5.2,3.9-9.4
	c0-3.6-1.4-7-3.8-9.2c-2.5-2.3-6.1-3.4-9.1-3.4C98.6,290.1,95.3,291.5,93.1,293.7z"/>
<path fill="#0098FC" d="M93.1,311.6c-1.4-1.6-3.4-4.5-3.4-9.1c0-4.5,2-7.5,3.8-9.1c1.1-1.1,2.5-2,4.2-2.7v-14.9
	c-6.7,0.2-12.5,2.7-16.9,6.9c-4.7,4.7-7.8,11.9-7.8,20.3c0,6.6,2,13.1,7.4,18.8c5.2,5.5,10.8,7.4,17.2,7.7v-14.9
	C95.9,313.9,94.4,312.8,93.1,311.6z"/>
<path fill="#58BDEB" d="M130.2,277.9h-16.1v19.9c0.6,1.6,0.9,3.3,0.9,5.2s-0.3,3.6-0.9,5.2v20h16.3v-50.2H130.2z"/>
<path fill="#9E9E9E" d="M143.1,277.8h16.3v7.8c1.4-2.8,3.8-5.5,6.3-7c2.7-1.7,5.5-2.2,8.6-2.2c2,0,3.4,0.2,5.3,0.8l-0.9,15.2
	c-2.2-1.1-4.5-1.9-7.4-1.9c-3.4,0-6.1,1.3-8.1,3.4c-3.6,3.8-3.9,9.2-3.9,13.5v20.3h-16.1V277.8z"/>
<path fill="#58BDEB" d="M171.2,290.9c2.8,0,5.2,0.6,7.4,1.9l0.9-15.2c-1.9-0.6-3.3-0.8-5.3-0.8c-0.8,0-1.4,0-2,0.2l-12.1,22.1h0.5
	c0.6-1.6,1.4-3.1,2.7-4.5C165.1,292.2,167.6,290.9,171.2,290.9z"/>
<path fill="#9E9E9E" d="M172,276.8c-2.3,0.2-4.5,0.8-6.6,2c-2.7,1.6-4.9,4.2-6.3,7v21.9c0-2.8,0.2-5.9,1.3-8.9H160L172,276.8z"/>
<polygon fill="#0098FC" points="159.2,277.9 142.9,277.9 142.9,328.2 159.2,328.2 159.2,307.8 159.2,285.8 "/>
<path fill="#9E9E9E" d="M606.5,328h-57.4l22.5-24.6c3.9-4.4,9.9-11.7,12.2-15.3c1.7-2.7,4.5-7.5,4.5-12.7c0-2.8-1.1-5.8-3-7.5
	c-1.4-1.4-3.9-2.2-6.9-2.2c-3.3,0-5.5,1.1-6.9,2.7c-2,2.2-3.1,6.3-3.1,9.2h-17.4c0.6-6.6,3.1-13.9,7.8-18.8c3.6-3.8,10-7.8,20.7-7.8
	c11,0,16.7,4.5,19.6,7c4.1,4.1,7,10.3,7,18c0,6.6-2,11.4-5.6,16.6c-3.3,4.5-7.2,8.3-12.1,13l-7.8,7.5h26V328H606.5z"/>
<polygon fill="#9E9E9E" points="549.2,328.8 550.3,328.8 562.2,314.7 "/>
<polygon fill="#58BDEB" points="572.3,328.8 606.8,328.8 606.8,314.2 584.6,314.2 "/>
<path fill="#0098FC" d="M599.5,259.1c-2.7-2.7-8.6-7-19.6-7c-10.6,0-17.1,3.9-20.7,7.8c-4.7,4.9-7.2,12.2-7.8,18.8h17.4
	c0-3,1.1-7,3.1-9.2c1.4-1.6,3.6-2.7,6.9-2.7c3,0,5.5,0.8,6.9,2.2c1.9,1.7,3,4.7,3,7.5c0,5.2-2.8,10-4.5,12.7l0,0l19.9-23.5
	C602.8,263.1,601.2,260.9,599.5,259.1z"/>
<path fill="#9E9E9E" d="M584.2,289l-21.8,25.7l9.5-10.3C575.9,299.8,581.6,292.6,584.2,289z"/>
<path fill="#9E9E9E" d="M580.9,314.2l7.8-7.5c4.9-4.7,8.8-8.5,12.1-13c3.6-5,5.6-9.9,5.6-16.6c0-4.4-0.9-8.3-2.5-11.6L584,289
	c-2.3,3.6-8.3,11-12.2,15.3l-9.5,10.3l-12.1,14.1h21.9l12.4-14.7h-3.6V314.2z"/>
</svg>
