<?xml version="1.0" encoding="utf-8"?>
<!-- Generator: Adobe Illustrator 18.1.1, SVG Export Plug-In . SVG Version: 6.00 Build 0)  -->
<svg version="1.1" id="Capa_1" xmlns="http://www.w3.org/2000/svg" xmlns:xlink="http://www.w3.org/1999/xlink" x="0px" y="0px"
	 viewBox="0 79.5 100.4 20.5" enable-background="new 0 79.5 100.4 20.5" xml:space="preserve">
<g>
	<rect x="22.5" y="83.9" fill="none" width="99.9" height="11.8"/>
</g>
<g>
	<path fill="#51DAD0" d="M16,86.9c0.5,0.3,1.2,0.1,1.5-0.4l0.3-0.5c0.2-0.5,0-1.2-0.5-1.5l-5-2.9c-0.2-0.1-0.4-0.2-0.6-0.2
		c-0.2,0-0.5,0-0.6,0.2l-5,2.9c-0.5,0.3-0.6,0.9-0.4,1.5l0.3,0.5c0.3,0.5,0.9,0.6,1.5,0.4l3-1.7v1.5l-4.4,2.5
		c-0.5,0.3-0.6,0.9-0.4,1.5L5.8,91c0.3,0.5,0.9,0.6,1.5,0.4l3-1.7v1.5l-4.4,2.5c-0.5,0.3-0.6,0.9-0.4,1.5l0.3,0.5
		c0.3,0.5,0.9,0.6,1.5,0.4l3-1.7v3.5c0,0.5,0.5,1.1,1.1,1.1h0.5c0.5,0,1.1-0.5,1.1-1.1v-3.5l3,1.7c0.5,0.3,1.2,0.1,1.5-0.4l0.3-0.5
		c0.2-0.5,0-1.2-0.5-1.5L13,91.2v-1.6l3,1.7c0.5,0.3,1.2,0.1,1.5-0.4l0.3-0.5c0.2-0.5,0-1.2-0.5-1.5L13,86.7v-1.6L16,86.9z"/>
	<path fill="#51DAD0" d="M24.4,93.1h4.7c0.4,0,0.7-0.3,0.7-0.7c0-0.4-0.3-0.7-0.7-0.7h-4v-2.5H29c0.4,0,0.7-0.3,0.7-0.7
		c0-0.4-0.3-0.7-0.7-0.7H25v-2.3h4c0.4,0,0.7-0.3,0.7-0.7c0-0.4-0.3-0.7-0.7-0.7h-4.7c-0.5,0-1,0.5-1,1v7.1
		C23.4,92.7,23.9,93.1,24.4,93.1z"/>
	<path fill="#51DAD0" d="M36.6,84.8c-0.2-0.5-0.8-0.9-1.4-0.9c-0.6,0-1.1,0.3-1.3,0.9L31.2,92c-0.1,0.1-0.1,0.2-0.1,0.3
		c0,0.5,0.4,0.9,0.9,0.9c0.3,0,0.7-0.2,0.8-0.5l0.5-1.3h4.1l0.5,1.3c0.1,0.3,0.5,0.5,0.8,0.5c0.5,0,0.9-0.5,0.9-0.9
		c0-0.1,0-0.2-0.1-0.3L36.6,84.8z M33.7,89.9l1.6-4.3l1.6,4.3H33.7z"/>
	<path fill="#51DAD0" d="M48,86.9c0-1.7-1.2-2.9-3-2.9h-3c-0.5,0-1,0.5-1,1v7.4c0,0.4,0.4,0.8,0.8,0.8c0.5,0,0.8-0.4,0.8-0.8v-2.7
		h1.6l1.8,3.1c0.1,0.3,0.4,0.4,0.7,0.4c0.5,0,0.8-0.4,0.8-0.8c0-0.1,0-0.3-0.1-0.4l-1.5-2.5C46.9,89.4,48,88.5,48,86.9z M44.8,88.3
		h-2.2v-2.9h2.2c0.9,0,1.5,0.6,1.5,1.4C46.3,87.7,45.7,88.3,44.8,88.3z"/>
	<path fill="#51DAD0" d="M55.3,84h-5.9c-0.4,0-0.7,0.3-0.7,0.7c0,0.4,0.3,0.7,0.7,0.7h2.1v6.9c0,0.4,0.4,0.8,0.8,0.8
		c0.5,0,0.8-0.4,0.8-0.8v-6.9h2.1c0.4,0,0.7-0.3,0.7-0.7C56.1,84.3,55.7,84,55.3,84z"/>
	<path fill="#51DAD0" d="M64.5,83.9c-0.5,0-0.8,0.4-0.8,0.8v3h-4.7v-3c0-0.4-0.4-0.8-0.8-0.8c-0.5,0-0.8,0.4-0.8,0.8v7.7
		c0,0.4,0.4,0.8,0.8,0.8c0.5,0,0.8-0.4,0.8-0.8v-3.2h4.7v3.2c0,0.4,0.4,0.8,0.8,0.8c0.5,0,0.8-0.4,0.8-0.8v-7.7
		C65.3,84.3,64.9,83.9,64.5,83.9z"/>
	<path fill="#51DAD0" d="M74.1,84h-2.4c-0.5,0-1,0.5-1,1v7.1c0,0.5,0.4,1,1,1h2.4c2.8,0,4.8-1.9,4.8-4.5C78.9,85.9,76.9,84,74.1,84z
		 M74.1,91.7h-1.8v-6.2h1.8c2,0,3.1,1.4,3.1,3.1C77.2,90.3,76.1,91.7,74.1,91.7z"/>
	<path fill="#51DAD0" d="M85.5,84.8c-0.2-0.5-0.8-0.9-1.4-0.9c-0.6,0-1.1,0.3-1.3,0.9L80,92C80,92.1,80,92.2,80,92.3
		c0,0.5,0.4,0.9,0.9,0.9c0.3,0,0.7-0.2,0.8-0.5l0.5-1.3h4.1l0.5,1.3c0.1,0.3,0.5,0.5,0.8,0.5c0.5,0,0.9-0.5,0.9-0.9
		c0-0.1,0-0.2-0.1-0.3L85.5,84.8z M82.6,89.9l1.6-4.3l1.6,4.3H82.6z"/>
	<path fill="#51DAD0" d="M94.3,83.9c-0.3,0-0.5,0.1-0.7,0.4l-2.3,3.6L89,84.3c-0.1-0.2-0.4-0.4-0.7-0.4c-0.5,0-0.8,0.4-0.8,0.8
		c0,0.1,0,0.3,0.1,0.4l2.8,4.3v3c0,0.4,0.4,0.8,0.8,0.8s0.8-0.4,0.8-0.8v-3l2.8-4.2C95,85,95,84.8,95,84.7
		C95,84.3,94.7,83.9,94.3,83.9z"/>
	<path fill="#51DAD0" d="M26.2,97.6H25c1-0.7,1.5-1.3,1.5-2c0-0.8-0.7-1.2-1.5-1.2c-0.5,0-1.1,0.2-1.3,0.5c0,0.1-0.1,0.1-0.1,0.2
		c0,0.2,0.2,0.4,0.4,0.4c0.1,0,0.2,0,0.2-0.1c0.2-0.2,0.5-0.2,0.8-0.2c0.3,0,0.6,0.2,0.6,0.5c0,0.5-0.5,0.9-1.9,1.9
		c-0.1,0.1-0.2,0.2-0.2,0.3c0,0.2,0.2,0.4,0.4,0.4h2.2c0.2,0,0.4-0.2,0.4-0.4C26.6,97.7,26.4,97.6,26.2,97.6z"/>
	<path fill="#51DAD0" d="M28.7,94.4c-1.1,0-1.6,1-1.6,2s0.5,2,1.6,2c1.1,0,1.6-1,1.6-2S29.8,94.4,28.7,94.4z M28.7,97.6
		c-0.6,0-0.8-0.6-0.8-1.3c0-0.7,0.2-1.3,0.8-1.3c0.5,0,0.8,0.5,0.8,1.3C29.4,97.1,29.2,97.6,28.7,97.6z"/>
	<path fill="#51DAD0" d="M32.1,94.4c-0.1,0-0.3,0.1-0.3,0.1l-0.9,0.9c-0.1,0.1-0.1,0.2-0.1,0.2c0,0.2,0.2,0.3,0.3,0.3
		c0.1,0,0.2,0,0.2-0.1l0.4-0.4v2.4c0,0.2,0.2,0.4,0.4,0.4c0.2,0,0.4-0.2,0.4-0.4v-3C32.5,94.6,32.3,94.4,32.1,94.4z"/>
	<path fill="#51DAD0" d="M35.1,95.8c-0.4,0-0.7,0.1-0.8,0.3v-0.9h1.5c0.2,0,0.4-0.2,0.4-0.4c0-0.2-0.2-0.4-0.4-0.4h-1.9
		c-0.3,0-0.5,0.2-0.5,0.5v1.5c0,0.2,0.2,0.4,0.4,0.4c0.1,0,0.2,0,0.3-0.1c0.2-0.1,0.4-0.2,0.6-0.2c0.4,0,0.7,0.2,0.7,0.6
		c0,0.3-0.3,0.6-0.7,0.6c-0.3,0-0.5-0.1-0.8-0.2c-0.1,0-0.1-0.1-0.2-0.1c-0.2,0-0.4,0.2-0.4,0.4c0,0.1,0,0.1,0,0.2
		c0.2,0.3,0.8,0.5,1.3,0.5c0.9,0,1.5-0.5,1.5-1.3C36.3,96.3,35.7,95.8,35.1,95.8z"/>
</g>
</svg>
