<?xml version="1.0" encoding="utf-8"?>
<!-- Generator: Adobe Illustrator 18.1.1, SVG Export Plug-In . SVG Version: 6.00 Build 0)  -->
<svg version="1.1" id="Layer_1" xmlns="http://www.w3.org/2000/svg" xmlns:xlink="http://www.w3.org/1999/xlink" x="0px" y="0px"
	 viewBox="0 0 100 100" enable-background="new 0 0 100 100" xml:space="preserve">
<rect fill="#F2A370" width="100" height="100"/>
<path fill="#FFFFFF" d="M7,15V7h8c1.1,0,2-0.9,2-2V4c0-1.1-0.9-2-2-2H5H4C2.9,2,2,2.9,2,4v1v10c0,1.1,0.9,2,2,2h1
	C6.1,17,7,16.1,7,15z"/>
<path fill="#FFFFFF" d="M93,85v8h-8c-1.1,0-2,0.9-2,2v1c0,1.1,0.9,2,2,2h10h1c1.1,0,2-0.9,2-2v-1V85c0-1.1-0.9-2-2-2h-1
	C93.9,83,93,83.9,93,85z"/>
<path fill="#FFFFFF" d="M85,7h8v8c0,1.1,0.9,2,2,2h1c1.1,0,2-0.9,2-2V5V4c0-1.1-0.9-2-2-2h-1H85c-1.1,0-2,0.9-2,2v1
	C83,6.1,83.9,7,85,7z"/>
<path fill="#FFFFFF" d="M15,93H7v-8c0-1.1-0.9-2-2-2H4c-1.1,0-2,0.9-2,2v10v1c0,1.1,0.9,2,2,2h1h10c1.1,0,2-0.9,2-2v-1
	C17,93.9,16.1,93,15,93z"/>
<g>
	<path fill="#FFFFFF" d="M76.5,72.5v1c0,1.1-0.9,2-2,2h-11c-1.1,0-2-0.9-2-2v-1c0-1.1,0.9-2,2-2h11C75.6,70.5,76.5,71.4,76.5,72.5z"
		/>
	<path fill="#FFFFFF" d="M55.5,69h-1c-1.1,0-2-0.9-2-2V56c0-1.1,0.9-2,2-2h1c1.1,0,2,0.9,2,2v11C57.5,68.1,56.6,69,55.5,69z"/>
	<path fill="#FFFFFF" d="M57.5,56v1c0,1.1-0.9,2-2,2h-11c-1.1,0-2-0.9-2-2v-1c0-1.1,0.9-2,2-2h11C56.6,54,57.5,54.9,57.5,56z"/>
	<path fill="#FFFFFF" d="M80.5,60.5v1c0,1.1-0.9,2-2,2h-11c-1.1,0-2-0.9-2-2v-1c0-1.1,0.9-2,2-2h11C79.6,58.5,80.5,59.4,80.5,60.5z"
		/>
	<path fill="#FFFFFF" d="M64.4,72l-5.5-9.5c-0.5-0.9-1.6-1.2-2.6-0.8c-0.9-0.4-2.1-0.1-2.6,0.8L48.2,72c-0.6,1-0.2,2.2,0.7,2.7
		l0.9,0.5c1,0.6,2.2,0.2,2.7-0.7l3.7-6.5l3.7,6.5c0.6,1,1.8,1.3,2.7,0.7l0.9-0.5C64.6,74.2,64.9,73,64.4,72z"/>
	<path fill="#FFFFFF" d="M77.9,72l-5.5-9.5c-0.5-0.9-1.6-1.2-2.6-0.8c-0.9-0.4-2.1-0.1-2.6,0.8L61.7,72c-0.6,1-0.2,2.2,0.7,2.7
		l0.9,0.5c1,0.6,2.2,0.2,2.7-0.7l3.7-6.5l3.7,6.5c0.6,1,1.8,1.3,2.7,0.7l0.9-0.5C78.1,74.2,78.4,73,77.9,72z"/>
	<path fill="#FFFFFF" d="M55,64.5v-1c0-1.1,0.9-2,2-2h11c1.1,0,2,0.9,2,2l0,1c0,1.1-0.9,2-2,2H57C55.9,66.5,55,65.6,55,64.5z"/>
	<circle fill="none" stroke="#FFFFFF" stroke-width="3" stroke-miterlimit="10" cx="47.9" cy="75.5" r="8.1"/>
	<circle fill="none" stroke="#FFFFFF" stroke-width="3" stroke-miterlimit="10" cx="77.1" cy="75.5" r="8.1"/>
</g>
<g>
	<path fill="#FFFFFF" d="M52.6,35.5v1c0,1.1-0.9,2-2,2h-11c-1.1,0-2-0.9-2-2v-1c0-1.1,0.9-2,2-2h11C51.7,33.5,52.6,34.4,52.6,35.5z"
		/>
	<path fill="#FFFFFF" d="M31.6,32h-1c-1.1,0-2-0.9-2-2V19c0-1.1,0.9-2,2-2h1c1.1,0,2,0.9,2,2v11C33.6,31.1,32.7,32,31.6,32z"/>
	<path fill="#FFFFFF" d="M33.6,19v1c0,1.1-0.9,2-2,2h-11c-1.1,0-2-0.9-2-2v-1c0-1.1,0.9-2,2-2h11C32.7,17,33.6,17.9,33.6,19z"/>
	<path fill="#FFFFFF" d="M56.6,23.5v1c0,1.1-0.9,2-2,2h-11c-1.1,0-2-0.9-2-2v-1c0-1.1,0.9-2,2-2h11C55.7,21.5,56.6,22.4,56.6,23.5z"
		/>
	<path fill="#FFFFFF" d="M40.5,35L35,25.5c-0.5-0.9-1.6-1.2-2.6-0.8c-0.9-0.4-2.1-0.1-2.6,0.8L24.3,35c-0.6,1-0.2,2.2,0.7,2.7
		l0.9,0.5c1,0.6,2.2,0.2,2.7-0.7l3.7-6.5l3.7,6.5c0.6,1,1.8,1.3,2.7,0.7l0.9-0.5C40.7,37.2,41,36,40.5,35z"/>
	<path fill="#FFFFFF" d="M54,35l-5.5-9.5c-0.5-0.9-1.6-1.2-2.6-0.8c-0.9-0.4-2.1-0.1-2.6,0.8L37.8,35c-0.6,1-0.2,2.2,0.7,2.7
		l0.9,0.5c1,0.6,2.2,0.2,2.7-0.7l3.7-6.5l3.7,6.5c0.6,1,1.8,1.3,2.7,0.7l0.9-0.5C54.2,37.2,54.5,36,54,35z"/>
	<path fill="#FFFFFF" d="M31.1,27.5v-1c0-1.1,0.9-2,2-2h11c1.1,0,2,0.9,2,2v1c0,1.1-0.9,2-2,2h-11C32,29.5,31.1,28.6,31.1,27.5z"/>
	<circle fill="none" stroke="#FFFFFF" stroke-width="3" stroke-miterlimit="10" cx="24.1" cy="38.5" r="8.1"/>
	<circle fill="none" stroke="#FFFFFF" stroke-width="3" stroke-miterlimit="10" cx="53.3" cy="38.5" r="8.1"/>
</g>
</svg>
