<?xml version="1.0" encoding="utf-8"?>
<!-- Generator: Adobe Illustrator 18.1.1, SVG Export Plug-In . SVG Version: 6.00 Build 0)  -->
<svg version="1.1" id="Layer_1" xmlns="http://www.w3.org/2000/svg" xmlns:xlink="http://www.w3.org/1999/xlink" x="0px" y="0px"
	 viewBox="0 0 511.1 75.8" enable-background="new 0 0 511.1 75.8" xml:space="preserve">
<path fill="#B0DEF8" d="M450.6,17.2h-6.8V7.8h17.9v48h-11.1V17.2z"/>
<path fill="#B0DEF8" d="M443.7,7.8h17.9"/>
<polygon fill="#58BDEB" points="449.7,7.3 449.7,16.7 450.6,16.7 450.6,55.3 461.7,55.3 461.7,7.3 "/>
<rect x="443.7" y="7.3" fill="#B0DEF8" width="5.9" height="9.4"/>
<path fill="#B0DEF8" d="M502.9,17.2h-16.2l-1.3,6.4c1.2-0.2,2.7-0.4,4-0.4c5.4,0,9.6,1.9,12.2,4.7c2.2,2.2,4.4,5.9,4.4,11.6
	c0,6.2-2.7,10.2-4.9,12.4c-4.4,4.3-9.6,5-14.5,5c-4.5,0-9.9-0.6-16-5.3l2.5-10.3c1.3,1.4,3.1,3,4.6,4c2,1.3,4.4,2.1,7.3,2.1
	c2.5,0,5.1-0.6,6.8-1.9c1.5-1.2,2.8-3.2,2.8-6c0-2.9-1.3-4.6-2.4-5.6c-0.6-0.5-3-2.5-8-2.5c-4,0-7.4,1.2-9.8,2.5l4.9-26h23.6V17.2z"
	/>
<path fill="#B0DEF8" d="M479.2,7.8h23.6"/>
<path fill="none" d="M484.9,47.6c2.5,0,5.1-0.6,6.8-1.9c1.5-1.2,2.8-3.2,2.8-6c0-2.9-1.3-4.6-2.4-5.6c-0.1-0.1-0.2-0.2-0.4-0.3
	l-11.4,13.1C481.7,47.3,483.3,47.6,484.9,47.6z"/>
<path fill="none" d="M486.7,17.3l-1.3,6.4c0.1,0,0.3,0,0.4-0.1l5.5-6.4H486.7z"/>
<path fill="#58BDEB" d="M498.6,25.8l-6.9,7.9c0.2,0.1,0.3,0.2,0.4,0.3c1.2,1,2.4,2.7,2.4,5.6c0,2.8-1.3,4.9-2.8,6
	c-1.7,1.4-4.3,1.9-6.8,1.9c-1.7,0-3.2-0.3-4.6-0.8l-6.4,7.3c4.7,2.6,8.9,3,12.5,3c4.9,0,10.2-0.7,14.5-5c2.2-2.2,4.9-6.2,4.9-12.4
	c0-5.7-2.2-9.4-4.4-11.6C500.7,27.2,499.8,26.4,498.6,25.8z"/>
<path fill="#0098FC" d="M485.4,23.7l1.3-6.4h4.6l8.1-9.4h-20.2l-4.9,26c1.1-0.6,2.4-1.2,3.9-1.6l7.5-8.7
	C485.6,23.7,485.5,23.7,485.4,23.7z"/>
<path fill="#B0DEF8" d="M491.8,33.7l6.9-7.9c-2.5-1.5-5.6-2.4-9.3-2.4c-1.1,0-2.4,0.1-3.6,0.3l-7.5,8.7c1.8-0.5,3.7-0.9,5.9-0.9
	C488.5,31.4,490.8,32.9,491.8,33.7z"/>
<polygon fill="#B0DEF8" points="502.9,17.3 502.9,8 499.4,8 491.3,17.3 "/>
<path fill="#B0DEF8" d="M477.7,45.5c-1.5-0.9-3.3-2.5-4.6-4l-2.5,10.3c1.2,0.9,2.3,1.7,3.5,2.3l6.4-7.3
	C479.4,46.5,478.5,46,477.7,45.5z"/>
<path fill="#B0DEF8" d="M313.3,41.1l8.9-17.4h11.7L308,72.3h-11.7l11.3-20.6l-0.5-0.9 M307.1,50.8l-14.8-27.1h12l9.1,17.4"/>
<path fill="#B0DEF8" d="M292.2,23.8h12 M322.1,23.8h11.7l-25.8,48.6h-11.7l11.3-20.6"/>
<path fill="#0098FC" d="M307.6,29.7 M301.9,40.8l-9.3-17h12l2.9,5.5l0.2,0.4"/>
<path fill="#58BDEB" d="M307.6,52l5.7-10.6l8.9-17.4h11.7l-25.8,48.6h-11.7L307.6,52z"/>
<path fill="#B0DEF8" d="M136,32.1v23.8h-10.4V32.1H122v-8.4h3.6V13.3H136v10.4h6.4v8.4H136z"/>
<polygon fill="#0098FC" points="135.1,26.3 136.5,23.5 136.5,13.3 126.1,13.3 126.1,23.7 122.5,23.7 122.5,32.1 126.1,32.1 
	126.1,42.8 129.4,36.9 "/>
<polygon fill="#58BDEB" points="136.5,44.7 130.6,55.8 136.5,55.8 "/>
<polygon fill="#58BDEB" points="136.5,32.1 142.9,32.1 142.9,23.7 136.5,23.7 136.5,23.5 135.1,26.3 129.4,36.9 126.1,42.8 
	126.1,55.8 130.6,55.8 136.5,44.7 "/>
<path fill="#B0DEF8" d="M37.9,41.6h-24c0,1.7,0.6,4,1.9,5.5c1.6,1.7,3.7,2,5.3,2c1.5,0,3.1-0.3,4.2-0.9c0.1-0.1,1.4-0.9,2.2-2.7
	l9.8,1c-1.4,4.5-4.3,6.9-6.2,8.1c-3.1,1.9-6.6,2.4-10.2,2.4c-4.8,0-9.1-0.9-12.8-4.6c-2.8-2.8-4.8-7.1-4.8-12.4
	c0-4.6,1.7-9.4,4.9-12.7c3.9-3.9,8.7-4.6,12.3-4.6s8.8,0.6,12.7,4.8c3.8,4,4.5,9.1,4.5,13V41.6z M28.3,35.4
	c-0.1-0.3-0.6-2.3-2.1-3.7c-1.2-1.1-2.8-1.8-4.9-1.8c-2.7,0-4.2,1.1-5.3,2.1c-0.8,0.9-1.5,2-1.8,3.5H28.3z"/>
<path fill="none" d="M17.4,31.5c-0.5,0.3-0.9,0.7-1.3,1c-0.8,0.9-1.5,2-1.8,3.5h0.8l0.3-0.6L17.4,31.5z"/>
<path fill="none" d="M27.5,33.9L26.3,36h2C28.3,35.8,28,34.9,27.5,33.9z"/>
<path fill="#58BDEB" d="M21,57.5c3.6,0,7.1-0.5,10.2-2.4c1.9-1.2,4.8-3.5,6.2-8.1l-9.8-1c-0.9,1.8-2.1,2.6-2.2,2.7
	c-1.1,0.6-2.7,0.9-4.2,0.9c-0.6,0-1.3,0-2-0.2l-3.9,7.4C17.1,57.4,19,57.5,21,57.5z"/>
<path fill="#58BDEB" d="M28.3,36h-2L23,42.2h14.9v-1.1c0-4-0.7-9-4.5-13c-0.6-0.6-1.3-1.2-1.9-1.7l-4,7.5C28,34.9,28.3,35.8,28.3,36
	z"/>
<path fill="#0098FC" d="M15.1,36h-0.8c0.3-1.4,1-2.6,1.8-3.5c0.4-0.4,0.8-0.7,1.3-1l4.2-8.2c-0.3,0-0.6,0-0.9,0
	c-3.6,0-8.4,0.7-12.3,4.6c-3.2,3.3-4.9,8.1-4.9,12.7c0,4.4,1.4,8,3.4,10.7l2.9-5.3L15.1,36z"/>
<path fill="#B0DEF8" d="M21.3,30.4c2.1,0,3.7,0.7,4.9,1.8c0.5,0.5,0.9,1.1,1.2,1.6l4-7.5c-3.2-2.4-7-3-9.9-3.1l-4.2,8.2
	C18.3,30.9,19.6,30.4,21.3,30.4z"/>
<path fill="#B0DEF8" d="M13.9,42.2H23l3.3-6.2H15.1l-5.4,10l-2.9,5.3c0.4,0.6,0.9,1.2,1.4,1.7c2.2,2.2,4.5,3.4,7,4l3.9-7.4
	c-1.1-0.2-2.3-0.8-3.3-1.8C14.6,46.2,13.9,43.9,13.9,42.2z"/>
<path fill="#B0DEF8" d="M427.6,51.9c-2.8,2.7-7,5-12.9,5c-5.8,0-9.9-2.2-12.7-5c-4.7-4.6-6.9-11.9-6.9-20.1c0-8.3,2.2-15.6,6.9-20.2
	c2.9-2.8,7-5,12.7-5c5.9,0,10.1,2.2,12.9,5c4.7,4.5,6.9,11.9,6.9,20.2C434.5,40.1,432.3,47.3,427.6,51.9z M410.4,18
	c-3.5,3.5-4,10.4-4,13.8c0,3.7,0.6,10.5,4,13.8c1.3,1.2,2.6,1.8,4.5,1.8s3.2-0.6,4.5-1.8c3.4-3.3,4-10.1,4-13.8
	c0-3.4-0.5-10.3-4-13.8c-1.3-1.2-2.6-1.8-4.5-1.8S411.6,16.8,410.4,18z"/>
<path fill="#B0DEF8" d="M414.7,6.8"/>
<path fill="#0098FC" d="M406.5,30.9c0-3.2,0.5-9.7,3.6-13.3V6.5c-3.3,0.8-5.9,2.4-7.9,4.4c-4.7,4.5-6.9,11.9-6.9,20.2
	c0,8.2,2.2,15.5,6.9,20.1c2,1.9,4.6,3.6,7.9,4.4V44.3C407.1,40.8,406.5,34.5,406.5,30.9z"/>
<path fill="#58BDEB" d="M434.7,31c0-8.3-2.2-15.6-6.9-20.2c-1.7-1.6-3.9-3.1-6.6-4v12.7c2,3.7,2.3,8.7,2.3,11.4
	c0,3-0.4,7.9-2.3,11.5v12.7c2.8-0.9,4.9-2.4,6.6-4C432.5,46.5,434.7,39.2,434.7,31z"/>
<path fill="#B0DEF8" d="M410.6,17.2c1.3-1.2,2.6-1.8,4.5-1.8s3.2,0.6,4.5,1.8c0.7,0.7,1.3,1.5,1.7,2.3V6.9c-1.8-0.6-3.9-1-6.3-1
	c-1.8,0-3.4,0.2-4.8,0.6v11.2C410.3,17.5,410.4,17.3,410.6,17.2z"/>
<path fill="#B0DEF8" d="M419.5,44.8c-1.3,1.2-2.6,1.8-4.5,1.8s-3.2-0.6-4.5-1.8c-0.2-0.1-0.3-0.3-0.4-0.5v11.2
	c1.5,0.4,3.1,0.6,4.8,0.6c2.4,0,4.4-0.4,6.3-1V42.4C420.7,43.3,420.2,44.1,419.5,44.8z"/>
<path fill="#B0DEF8" d="M275.7,23.7h10.4v32.1h-10.4v-3.9c-2.8,4.3-6.8,5-9.5,5c-4.6,0-8.5-1.2-12-4.9c-3.4-3.6-4.7-7.8-4.7-12
	c0-5.4,2-10,5-13c2.8-2.8,6.7-4.4,11.2-4.4c2.7,0,7.1,0.6,10.1,4.7V23.7z M262.5,33.9c-1.1,1.1-2.4,3-2.4,5.8c0,2.9,1.2,4.8,2.2,5.8
	c1.4,1.5,3.7,2.5,6.1,2.5c2.1,0,4-0.9,5.4-2.2c1.4-1.3,2.5-3.3,2.5-6c0-2.3-0.9-4.5-2.4-5.9c-1.6-1.5-3.9-2.2-5.8-2.2
	C266,31.6,263.9,32.5,262.5,33.9z"/>
<path fill="#0098FC" d="M262.5,45.3c-0.9-1-2.2-2.9-2.2-5.8c0-2.9,1.3-4.8,2.4-5.8c0.7-0.7,1.6-1.3,2.7-1.7v-9.5
	c-4.3,0.1-8,1.7-10.8,4.4c-3,3-5,7.6-5,13c0,4.2,1.3,8.4,4.7,12c3.3,3.5,6.9,4.7,11,4.9v-9.5C264.3,46.8,263.3,46.1,262.5,45.3z"/>
<path fill="#58BDEB" d="M286.2,23.8h-10.4v12.7c0.4,1,0.6,2.1,0.6,3.3c0,1.2-0.2,2.3-0.6,3.3v12.8h10.4V23.8z"/>
<path fill="#B0DEF8" d="M242.7,55.8h-10.4v-3.9c-1.6,2.3-4.5,5-10.2,5c-4.8,0-8.2-1.5-11-4.4c-3.3-3.3-5-7.9-5-12.9
	c0-5.3,1.9-9.7,5-12.7c2.8-2.7,6.8-4.3,11.2-4.3c3.5,0,7.4,1.2,10,4.7v-24h10.4V55.8z M219.3,33.7c-1.5,1.4-2.5,3.5-2.5,6.1
	c0,2.4,1,4.5,2.5,5.9c1.6,1.5,3.6,2.2,5.4,2.2c1.9,0,4.2-0.8,5.9-2.4c1.2-1.2,2.4-3.1,2.4-5.8c0-2.7-1.1-4.6-2.3-5.9
	c-1.7-1.7-3.6-2.4-5.8-2.4C222.8,31.6,221,32.1,219.3,33.7z"/>
<path fill="#58BDEB" d="M232.6,3v24v9.2c0.4,0.9,0.6,2.1,0.6,3.4c0,1.2-0.3,2.3-0.6,3.2v8.9v3.9H243V3H232.6z"/>
<path fill="#0098FC" d="M219.3,45.9c-1.5-1.4-2.5-3.5-2.5-5.9c0-2.6,1-4.7,2.5-6.1c0.8-0.8,1.6-1.3,2.5-1.6v-9.4
	c-4.2,0.1-8,1.7-10.7,4.3c-3.1,3-5,7.3-5,12.7c0,5,1.7,9.6,5,12.9c2.7,2.8,6.1,4.3,10.7,4.4v-9.5C220.9,47.2,220.1,46.6,219.3,45.9z
	"/>
<path fill="#B0DEF8" d="M150.2,3.3h10.4v24.2c1.3-1.6,2.7-2.7,3.9-3.3c2.2-1.2,4-1.4,6.3-1.4c2.5,0,6.3,0.4,9.1,3.2
	c3,3,3.2,6.9,3.2,9.4v20.4h-10.4V39.3c0-2.2-0.1-4.8-1.7-6.4c-0.9-0.9-2.5-1.4-4-1.4c-2.2,0-3.5,1-4.1,1.6c-2.1,2-2.2,5.1-2.2,6.7
	v16.1h-10.4V3.3z"/>
<path fill="#58BDEB" d="M179.8,26.1c-2.7-2.8-6.2-3.2-8.7-3.2V26v7.1c1.4,1.6,1.5,4,1.5,6.2v16.5H183V35.5
	C183,33,182.7,29,179.8,26.1z"/>
<polygon fill="#0098FC" points="160.2,4 149.9,4 149.9,56.5 160.2,56.5 160.2,40.4 160.2,28.2 "/>
<path fill="#B0DEF8" d="M73,23.7h10.4v32.1H73v-3.9c-2.8,4.3-6.8,5-9.5,5c-4.6,0-8.5-1.2-12-4.9c-3.4-3.6-4.7-7.8-4.7-12
	c0-5.4,2-10,5-13c2.8-2.8,6.7-4.4,11.2-4.4c2.7,0,7.1,0.6,10.1,4.7V23.7z M59.8,33.9c-1.1,1.1-2.4,3-2.4,5.8c0,2.9,1.2,4.8,2.2,5.8
	C61,47,63.2,48,65.7,48c2.1,0,4-0.9,5.4-2.2c1.4-1.3,2.5-3.3,2.5-6c0-2.3-0.9-4.5-2.4-5.9c-1.6-1.5-3.9-2.2-5.8-2.2
	C63.2,31.6,61.1,32.5,59.8,33.9z"/>
<path fill="#B0DEF8" d="M72.7,23.7h10.4v32.1H72.7v-3.9c-2.8,4.3-6.8,5-9.5,5c-4.6,0-8.5-1.2-12-4.9c-3.4-3.6-4.7-7.8-4.7-12
	c0-5.4,2-10,5-13c2.8-2.8,6.7-4.4,11.2-4.4c2.7,0,7.1,0.6,10.1,4.7V23.7z M59.5,33.9c-1.1,1.1-2.4,3-2.4,5.8c0,2.9,1.2,4.8,2.2,5.8
	C60.8,47,63,48,65.4,48c2.1,0,4-0.9,5.4-2.2c1.4-1.3,2.5-3.3,2.5-6c0-2.3-0.9-4.5-2.4-5.9c-1.6-1.5-3.9-2.2-5.8-2.2
	C63,31.6,60.9,32.5,59.5,33.9z"/>
<path fill="#0098FC" d="M59.5,45.3c-0.9-1-2.2-2.9-2.2-5.8c0-2.9,1.3-4.8,2.4-5.8c0.7-0.7,1.6-1.3,2.7-1.7v-9.5
	c-4.3,0.1-8,1.7-10.8,4.4c-3,3-5,7.6-5,13c0,4.2,1.3,8.4,4.7,12c3.3,3.5,6.9,4.7,11,4.9v-9.5C61.3,46.8,60.3,46.1,59.5,45.3z"/>
<path fill="#58BDEB" d="M83.2,23.8H72.9v12.7c0.4,1,0.6,2.1,0.6,3.3c0,1.2-0.2,2.3-0.6,3.3v12.8h10.4V23.8z"/>
<path fill="#B0DEF8" d="M91.4,23.7h10.4v5c0.9-1.8,2.4-3.5,4-4.5c1.7-1.1,3.5-1.4,5.5-1.4c1.3,0,2.2,0.1,3.4,0.5l-0.6,9.7
	c-1.4-0.7-2.9-1.2-4.7-1.2c-2.2,0-3.9,0.8-5.2,2.2c-2.3,2.4-2.5,5.9-2.5,8.6v13H91.4V23.7z"/>
<path fill="#58BDEB" d="M109.4,32.1c1.8,0,3.3,0.4,4.7,1.2l0.6-9.7c-1.2-0.4-2.1-0.5-3.4-0.5c-0.5,0-0.9,0-1.3,0.1l-7.7,14.1h0.3
	c0.4-1,0.9-2,1.7-2.9C105.5,32.9,107.1,32.1,109.4,32.1z"/>
<path fill="#B0DEF8" d="M109.9,23.1c-1.5,0.1-2.9,0.5-4.2,1.3c-1.7,1-3.1,2.7-4,4.5v14c0-1.8,0.1-3.8,0.8-5.7h-0.3L109.9,23.1z"/>
<polygon fill="#0098FC" points="101.7,23.8 91.3,23.8 91.3,55.9 101.7,55.9 101.7,42.9 101.7,28.8 "/>
<path fill="#B0DEF8" d="M387.5,55.8h-36.7l14.4-15.7c2.5-2.8,6.3-7.5,7.8-9.8c1.1-1.7,2.9-4.8,2.9-8.1c0-1.8-0.7-3.7-1.9-4.8
	c-0.9-0.9-2.5-1.4-4.4-1.4c-2.1,0-3.5,0.7-4.4,1.7c-1.3,1.4-2,4-2,5.9h-11.1c0.4-4.2,2-8.9,5-12c2.3-2.4,6.4-5,13.2-5
	c7,0,10.7,2.9,12.5,4.5c2.6,2.6,4.5,6.6,4.5,11.5c0,4.2-1.3,7.3-3.6,10.6c-2.1,2.9-4.6,5.3-7.7,8.3l-5,4.8h16.6V55.8z"/>
<polygon fill="#B0DEF8" points="350.9,56.3 351.6,56.3 359.2,47.3 "/>
<polygon fill="#58BDEB" points="365.6,56.3 387.7,56.3 387.7,47 373.5,47 "/>
<path fill="#0098FC" d="M383,11.8c-1.7-1.7-5.5-4.5-12.5-4.5c-6.8,0-10.9,2.5-13.2,5c-3,3.1-4.6,7.8-5,12h11.1c0-1.9,0.7-4.5,2-5.9
	c0.9-1,2.3-1.7,4.4-1.7c1.9,0,3.5,0.5,4.4,1.4c1.2,1.1,1.9,3,1.9,4.8c0,3.3-1.8,6.4-2.9,8.1c0,0,0,0,0,0l12.7-15
	C385.1,14.3,384.1,12.9,383,11.8z"/>
<path fill="#B0DEF8" d="M373.2,30.9l-13.9,16.4l6.1-6.6C367.9,37.8,371.6,33.2,373.2,30.9z"/>
<path fill="#B0DEF8" d="M371.1,47l5-4.8c3.1-3,5.6-5.4,7.7-8.3c2.3-3.2,3.6-6.3,3.6-10.6c0-2.8-0.6-5.3-1.6-7.4l-12.7,15
	c-1.5,2.3-5.3,7-7.8,9.8l-6.1,6.6l-7.7,9h14l7.9-9.4H371.1z"/>
</svg>
