<?xml version="1.0" encoding="utf-8"?>
<!-- Generator: Adobe Illustrator 18.1.1, SVG Export Plug-In . SVG Version: 6.00 Build 0)  -->
<svg version="1.1" id="Capa_1" xmlns="http://www.w3.org/2000/svg" xmlns:xlink="http://www.w3.org/1999/xlink" x="0px" y="0px"
	 viewBox="-144 59.4 260 320" enable-background="new -144 59.4 260 320" xml:space="preserve">
<path fill="#E8F409" d="M100.5,126L-0.3,67.8c-3.8-2.2-8.1-3.1-12.2-2.8c-4.1-0.3-8.4,0.5-12.2,2.8L-125.5,126
	c-10.1,5.8-13.6,18.8-7.7,28.9l5.3,9.2c5.8,10.1,18.8,13.6,28.9,7.7l60.1-34.7v69.1c0,11.7,9.5,21.2,21.2,21.2h10.6
	c11.7,0,21.2-9.5,21.2-21.2v-69.1l60.1,34.7c10.1,5.8,23.1,2.4,28.9-7.7l5.3-9.2C114.1,144.8,110.6,131.9,100.5,126z"/>
<path fill="#7ADC7C" d="M100.5,199.2L-0.3,141c-3.8-2.2-8.1-3.1-12.2-2.8c-4.1-0.3-8.4,0.5-12.2,2.8l-100.8,58.2
	c-10.1,5.8-13.6,18.8-7.7,28.9l5.3,9.2c5.8,10.1,18.8,13.6,28.9,7.7l60.1-34.7v69.1c0,11.7,9.5,21.2,21.2,21.2h10.6
	c11.7,0,21.2-9.5,21.2-21.2v-69.1l60.1,34.7c10.1,5.8,23.1,2.4,28.9-7.7l5.3-9.2C114.1,218,110.6,205.1,100.5,199.2z"/>
<path fill="#51DAD0" d="M100.5,272.4L-0.3,214.2c-3.8-2.2-8.1-3.1-12.2-2.8c-4.1-0.3-8.4,0.5-12.2,2.8l-100.8,58.2
	c-10.1,5.8-13.6,18.8-7.7,28.9l5.3,9.2c5.8,10.1,18.8,13.6,28.9,7.7l60.1-34.7v69.1c0,11.7,9.5,21.2,21.2,21.2h10.6
	c11.7,0,21.2-9.5,21.2-21.2v-69.1l60.1,34.7c10.1,5.8,23.1,2.4,28.9-7.7l5.3-9.2C114.1,291.2,110.6,278.3,100.5,272.4z"/>
</svg>
